<svg xmlns="http://www.w3.org/2000/svg" viewBox="0 0 461.8 391.78"><defs><style>.cls-1{fill:#343434;}.cls-2{fill:#0463b5;}.cls-3{fill:#4ba5fb;}.cls-4{fill:#fdbb3f;}.cls-5{fill:#fff;}.cls-6{fill:#f29e02;}</style></defs><g id="Calque_2" data-name="Calque 2"><g id="Calque_1-2" data-name="Calque 1"><path class="cls-1" d="M70.88,370.07c-17.62,0-31-9.8-39.65-29.12a104.3,104.3,0,0,1-8-30.51l-15.8-205C5.33,78.54,12,58.69,27.32,46.47A49.61,49.61,0,0,1,50.58,36.14L362.78,4.37A59.74,59.74,0,0,1,369.21,4c19.1,0,42.67,10.36,46.47,59.73l15.8,205a106.4,106.4,0,0,1-3.78,33.58C421.3,324,408,336,388.3,338L76.11,369.8A52.07,52.07,0,0,1,70.88,370.07Z"/><path d="M369.21,0V8h0c25,0,39.65,19.38,42.47,56l15.8,205a102.22,102.22,0,0,1-3.68,32.34c-5.92,19.89-18,30.9-35.92,32.72L212.71,351.88l-137,13.94c-1.64.16-3.26.25-4.82.25-15.85,0-27.94-8.95-35.92-26.58a100.35,100.35,0,0,1-7.77-29.36l-15.8-205C9.45,80,15.46,61.43,29.26,50.05A46.51,46.51,0,0,1,51,40.12L363.18,8.35a56.7,56.7,0,0,1,6-.35V0m0,0a64.64,64.64,0,0,0-6.84.39L50.18,32.16s-52,5.3-46.77,73.62,15.8,205,15.8,205,4.88,63.32,51.67,63.32c1.81,0,3.69-.1,5.63-.29L388.7,342c52-5.3,46.77-73.62,46.77-73.62s-10.53-136.65-15.8-205C415.27,6.3,384.44,0,369.21,0Z"/><path class="cls-2" d="M54.83,387.78c-20.85,0-35.71-11.18-44.17-33.24A110.69,110.69,0,0,1,4,319.78v-216c0-66.95,48.77-68,50.84-68h329c33.25,0,50.83,23.52,50.83,68v216A110.69,110.69,0,0,1,428,354.54c-8.46,22.06-23.32,33.24-44.17,33.24Z"/><path d="M383.83,39.78c4.33,0,15.84,0,26.28,7.5,13.63,9.79,20.55,28.8,20.55,56.5v216a106.46,106.46,0,0,1-6.47,33.52c-3.52,9.12-8.26,16.3-14.07,21.34-7.1,6.16-15.7,9.15-26.29,9.15h-329c-10.59,0-19.19-3-26.29-9.15-5.82-5-10.55-12.22-14.07-21.34A106.46,106.46,0,0,1,8,319.78v-216c0-26.64,7.81-45.46,23.22-55.92a47.89,47.89,0,0,1,23.61-8.08h329m0-8h-329S0,31.78,0,103.78v216s0,72,54.83,72h329c54.83,0,54.83-72,54.83-72v-216c0-72-45.41-72-54.83-72Z"/><path class="cls-3" d="M349.93,361.94H79.73c-45,0-45-60.2-45-60.2V121.13c0-60.2,45-60.2,45-60.2h270.2c7.74,0,45,0,45,60.2V301.74S395,361.94,349.93,361.94Z"/><path class="cls-4" d="M266.08,146.25A15.23,15.23,0,1,1,281.31,131,15.24,15.24,0,0,1,266.08,146.25Z"/><path d="M266.08,119.8A11.23,11.23,0,1,1,254.86,131a11.24,11.24,0,0,1,11.22-11.22m0-8A19.23,19.23,0,1,0,285.31,131a19.23,19.23,0,0,0-19.23-19.22Z"/><path class="cls-4" d="M266.31,288.78a15.22,15.22,0,1,1,15.22-15.22A15.24,15.24,0,0,1,266.31,288.78Z"/><path d="M266.31,262.34a11.22,11.22,0,1,1-11.23,11.22,11.23,11.23,0,0,1,11.23-11.22m0-8a19.22,19.22,0,1,0,19.22,19.22,19.22,19.22,0,0,0-19.22-19.22Z"/><polygon points="253.28 139.1 227.37 165.02 73.97 165.02 73.97 173.02 230.64 173.02 230.64 172.97 230.69 173.02 258.94 144.76 253.28 139.1"/><polygon points="230.47 229.88 230.43 229.93 230.43 229.87 73.97 229.87 73.97 237.87 227.15 237.87 253.07 263.79 258.73 258.13 230.47 229.88"/><rect class="cls-5" x="48.03" y="167.51" width="9.33" height="3.04"/><polygon points="59.86 165.01 45.53 165.01 45.53 173.05 59.86 173.05 59.86 165.01 59.86 165.01"/><rect class="cls-5" x="48.03" y="232.34" width="9.33" height="3.04"/><polygon points="59.86 229.84 45.53 229.84 45.53 237.88 59.86 237.88 59.86 229.84 59.86 229.84"/><rect class="cls-5" x="58.69" y="199.92" width="9.33" height="3.04"/><polygon points="70.53 197.42 56.19 197.42 56.19 205.46 70.53 205.46 70.53 197.42 70.53 197.42"/><rect class="cls-5" x="30.03" y="199.93" width="9.33" height="3.04"/><polygon points="41.86 197.43 27.53 197.43 27.53 205.47 41.86 205.47 41.86 197.43 41.86 197.43"/><rect x="322.08" y="196.39" width="33.46" height="8"/><path d="M293.86,172.55A27.85,27.85,0,1,1,266,200.39a27.87,27.87,0,0,1,27.85-27.84m0-6a33.85,33.85,0,1,0,33.85,33.84,33.85,33.85,0,0,0-33.85-33.84Z"/><rect class="cls-3" x="283.19" y="163.61" width="10.67" height="71.5"/><rect class="cls-3" x="260.01" y="172.27" width="15.01" height="61.59"/><path class="cls-4" d="M293.86,215.62a15.23,15.23,0,1,1,15.22-15.23A15.24,15.24,0,0,1,293.86,215.62Z"/><path d="M293.86,189.17a11.22,11.22,0,1,1-11.22,11.22,11.23,11.23,0,0,1,11.22-11.22m0-8a19.22,19.22,0,1,0,19.22,19.22,19.22,19.22,0,0,0-19.22-19.22Z"/><rect x="84.86" y="197.45" width="192.5" height="8"/><path class="cls-4" d="M127.23,341.57a15.23,15.23,0,1,1,15.22-15.22A15.24,15.24,0,0,1,127.23,341.57Z"/><path d="M127.23,315.13A11.22,11.22,0,1,1,116,326.35a11.23,11.23,0,0,1,11.23-11.22m0-8a19.22,19.22,0,1,0,19.22,19.22,19.22,19.22,0,0,0-19.22-19.22Z"/><polygon points="85.23 391.78 93.23 391.78 93.23 365.07 119.15 339.15 113.49 333.49 85.23 361.74 85.28 361.79 85.23 361.79 85.23 391.78"/><path class="cls-4" d="M175,112.44A15.23,15.23,0,1,1,190.2,97.22,15.24,15.24,0,0,1,175,112.44Z"/><path d="M175,86a11.23,11.23,0,1,1-11.22,11.23A11.24,11.24,0,0,1,175,86m0-8A19.23,19.23,0,1,0,194.2,97.22,19.22,19.22,0,0,0,175,78Z"/><polygon points="216.98 31.78 208.98 31.78 208.98 58.5 183.06 84.42 188.72 90.07 216.97 61.82 216.92 61.77 216.98 61.77 216.98 31.78"/><path class="cls-4" d="M384.64,236.47a36.08,36.08,0,0,1,0-72.16h36.83l.78,0a36.07,36.07,0,0,1,0,72.13H384.64Z"/><path d="M421.23,168.31l1,0a32.07,32.07,0,0,1,0,64.13H384.64a32.08,32.08,0,0,1,0-64.16h36.59m1.08-8H384.64a40.08,40.08,0,0,0,0,80.16h37.67a40.07,40.07,0,0,0,0-80.13v0Z"/><circle class="cls-5" cx="423.32" cy="197.45" r="12.34"/><path d="M423.32,188.11a9.34,9.34,0,1,1-9.34,9.34,9.35,9.35,0,0,1,9.34-9.34m0-6a15.34,15.34,0,1,0,15.34,15.34,15.34,15.34,0,0,0-15.34-15.34Z"/><path class="cls-6" d="M419.34,167.4H395v65.55h24.38c19.49-.26,35.21-14.83,35.21-32.77S438.83,167.66,419.34,167.4Z"/><path d="M421.23,168.31l1,0a32.07,32.07,0,0,1,0,64.13H384.64a32.08,32.08,0,0,1,0-64.16h36.59m1.08-8H384.64a40.08,40.08,0,0,0,0,80.16h37.67a40.07,40.07,0,0,0,0-80.13v0Z"/><path class="cls-5" d="M424.75,211.71a12.35,12.35,0,1,1,12.34-12.35A12.36,12.36,0,0,1,424.75,211.71Z"/><path d="M424.75,190a9.35,9.35,0,1,1-9.34,9.34,9.35,9.35,0,0,1,9.34-9.34m0-6a15.35,15.35,0,1,0,15.34,15.34A15.34,15.34,0,0,0,424.75,184Z"/></g></g></svg>