<svg xmlns="http://www.w3.org/2000/svg" xmlns:xlink="http://www.w3.org/1999/xlink" viewBox="0 0 351.57 271.11"><defs><style>.cls-1{fill:#fff;}.cls-2{fill:url(#Dégradé_sans_nom_29);}.cls-3{fill:#fd8d11;}.cls-4{fill:#fdbb3f;}</style><linearGradient id="Dégradé_sans_nom_29" x1="164" y1="260.58" x2="164" y2="10.53" gradientUnits="userSpaceOnUse"><stop offset="0" stop-color="#f5f2fa"/><stop offset="0" stop-color="#f2f2f2"/><stop offset="1" stop-color="#fff"/></linearGradient></defs><g id="Calque_2" data-name="Calque 2"><g id="Calque_1-2" data-name="Calque 1"><rect class="cls-1" width="326.67" height="271.11" rx="36"/><rect class="cls-2" x="13.35" y="10.53" width="301.3" height="250.06" rx="36"/><path class="cls-3" d="M351.57,138.86c0-21.49-10.73-39-24.21-40v0H256.14v.1c-13.25,1.38-23.74,18.75-23.74,40s10.49,38.61,23.74,40v.1h71.22v-.05C340.84,177.89,351.57,160.35,351.57,138.86Z"/><path class="cls-4" d="M346.19,138.86c0-21.49-10.73-39-24.21-40v0H250.76v.1c-13.25,1.38-23.74,18.75-23.74,40s10.49,38.61,23.74,40v.1H322v-.05C335.46,177.89,346.19,160.35,346.19,138.86Z"/><circle class="cls-1" cx="263.41" cy="138.86" r="19.72"/></g></g></svg>